<svg width="32" height="32" viewBox="0 0 32 32" fill="none" xmlns="http://www.w3.org/2000/svg">
<path d="M10.6673 21.3333C10.6673 22.0697 11.2643 22.6667 12.0007 22.6667C12.737 22.6667 13.334 22.0697 13.334 21.3333C13.334 18.2554 14.0151 16.3434 15.1796 15.1789C16.3441 14.0144 18.256 13.3333 21.334 13.3333C22.0704 13.3333 22.6673 12.7364 22.6673 12C22.6673 11.2636 22.0704 10.6667 21.334 10.6667C18.256 10.6667 16.3441 9.98559 15.1796 8.82109C14.0151 7.65658 13.334 5.74466 13.334 2.66668C13.334 1.9303 12.737 1.33334 12.0007 1.33334C11.2643 1.33334 10.6673 1.9303 10.6673 2.66668C10.6673 5.74466 9.98624 7.65658 8.82173 8.82109C7.65723 9.98559 5.7453 10.6667 2.66732 10.6667C1.93094 10.6667 1.33398 11.2636 1.33398 12C1.33398 12.7364 1.93094 13.3333 2.66732 13.3333C5.7453 13.3333 7.65723 14.0144 8.82173 15.1789C9.98624 16.3434 10.6673 18.2554 10.6673 21.3333Z" fill="#9C9696"/>
<path d="M22.0007 29.3333C22.0007 30.0697 22.5976 30.6667 23.334 30.6667C24.0704 30.6667 24.6673 30.0697 24.6673 29.3333C24.6673 27.4128 25.0938 26.3342 25.7143 25.7137C26.3348 25.0931 27.4134 24.6667 29.334 24.6667C30.0704 24.6667 30.6673 24.0697 30.6673 23.3333C30.6673 22.597 30.0704 22 29.334 22C27.4134 22 26.3348 21.5736 25.7143 20.953C25.0938 20.3325 24.6673 19.2539 24.6673 17.3333C24.6673 16.597 24.0704 16 23.334 16C22.5976 16 22.0007 16.597 22.0007 17.3333C22.0007 19.2539 21.5742 20.3325 20.9537 20.953C20.3332 21.5736 19.2546 22 17.334 22C16.5976 22 16.0007 22.597 16.0007 23.3333C16.0007 24.0697 16.5976 24.6667 17.334 24.6667C19.2546 24.6667 20.3332 25.0931 20.9537 25.7137C21.5742 26.3342 22.0007 27.4128 22.0007 29.3333Z" fill="#9C9696"/>
</svg>
