<svg width="24" height="24" viewBox="0 0 24 24" fill="none" xmlns="http://www.w3.org/2000/svg">
<path d="M22.4533 5.06665H17.8867V7.73148H22.4533V5.06665Z" fill="#090909"/>
<path d="M22.4533 8.77783H17.8867V11.4427H22.4533V8.77783Z" fill="#090909"/>
<path d="M22.4533 12.4873H17.8867V15.1522H22.4533V12.4873Z" fill="#090909"/>
<path d="M5.89848 16.1987H1.33203V18.8636H5.89848V16.1987Z" fill="#090909"/>
<path d="M11.418 16.1987H6.85156V18.8636H11.418V16.1987Z" fill="#090909"/>
<path d="M16.9356 16.1987H12.3691V18.8636H16.9356V16.1987Z" fill="#090909"/>
<path d="M22.4533 16.1987H17.8867V18.8636H22.4533V16.1987Z" fill="#090909"/>
<path d="M16.9356 12.4873H12.3691V15.1522H16.9356V12.4873Z" fill="#090909"/>
<path d="M11.418 12.4873H6.85156V15.1522H11.418V12.4873Z" fill="#090909"/>
<path d="M11.418 8.77783H6.85156V11.4427H11.418V8.77783Z" fill="#090909"/>
</svg>
