<svg width="32" height="32" viewBox="0 0 32 32" fill="none" xmlns="http://www.w3.org/2000/svg">
<path fill-rule="evenodd" clip-rule="evenodd" d="M1.33398 16C1.33398 10.109 6.10961 5.33333 12.0007 5.33333C15.9982 5.33333 19.4796 7.53213 21.3059 10.7823C21.7489 10.7062 22.2039 10.6667 22.6673 10.6667C27.0856 10.6667 30.6673 14.2484 30.6673 18.6667C30.6673 21.9492 28.6905 24.7671 25.8678 26.0004C25.193 26.2952 24.407 25.9872 24.1122 25.3124C23.8174 24.6377 24.1254 23.8516 24.8002 23.5568C26.6866 22.7326 28.0006 20.8516 28.0006 18.6667C28.0006 15.7211 25.6128 13.3333 22.6673 13.3333C22.0834 13.3333 21.5239 13.4267 21.0015 13.5983C20.3445 13.814 19.6316 13.4918 19.3596 12.856C18.1368 9.99822 15.3005 8 12.0007 8C7.58237 8 4.00065 11.5817 4.00065 16C4.00065 18.7174 5.3543 21.1189 7.43011 22.5668C8.03408 22.9881 8.18218 23.8192 7.7609 24.4232C7.33962 25.0272 6.50849 25.1753 5.90452 24.754C3.14437 22.8287 1.33398 19.6259 1.33398 16ZM16.0007 17.3333C16.737 17.3333 17.334 17.9303 17.334 18.6667V23.4477L18.3912 22.3905C18.9119 21.8698 19.7561 21.8698 20.2768 22.3905C20.7975 22.9112 20.7975 23.7554 20.2768 24.2761L16.9435 27.6095C16.4228 28.1302 15.5785 28.1302 15.0578 27.6095L11.7245 24.2761C11.2038 23.7554 11.2038 22.9112 11.7245 22.3905C12.2452 21.8698 13.0894 21.8698 13.6101 22.3905L14.6673 23.4477V18.6667C14.6673 17.9303 15.2643 17.3333 16.0007 17.3333Z" fill="#9C9696"/>
</svg>
