<svg width="24" height="24" viewBox="0 0 24 24" fill="none" xmlns="http://www.w3.org/2000/svg">
<path fill-rule="evenodd" clip-rule="evenodd" d="M11.9987 1.33325C17.8897 1.33325 22.6654 6.10888 22.6654 11.9999C22.6654 17.3236 18.7654 21.7361 13.6667 22.5368V15.0833H16.1521L16.625 12H16.6237L16.6237 11.9999H13.6667V9.99917C13.6667 9.15563 14.08 8.33333 15.405 8.33333H16.75V5.70832C16.75 5.70832 15.9859 5.57791 15.0887 5.52345C14.8516 5.50904 14.6051 5.49992 14.361 5.49992C11.9245 5.49992 10.332 6.97659 10.332 9.64992V11.9999H7.62371V15.0833H7.625V15.0833H10.332V22.537C5.23264 21.7368 1.33203 17.3239 1.33203 11.9999C1.33203 6.10888 6.10766 1.33325 11.9987 1.33325Z" fill="#090909"/>
</svg>
