<svg width="32" height="32" viewBox="0 0 32 32" fill="none" xmlns="http://www.w3.org/2000/svg">
<path fill-rule="evenodd" clip-rule="evenodd" d="M15.9993 29.3333C23.3631 29.3333 29.3327 23.3638 29.3327 16C29.3327 8.63621 23.3631 2.66667 15.9993 2.66667C8.63555 2.66667 2.66602 8.63621 2.66602 16C2.66602 23.3638 8.63555 29.3333 15.9993 29.3333ZM14.62 11.0655C15.3697 12.2403 14.9994 14.1647 12.469 16.1726C12.3785 16.2444 12.2579 16.2657 12.1482 16.2291C9.08375 15.2078 8.07756 13.5261 8.38027 12.1658C8.52725 11.5053 8.98573 10.9697 9.59417 10.722C10.1299 10.5039 10.7597 10.5174 11.3617 10.8306C11.8203 10.3304 12.4075 10.1022 12.9855 10.124C13.642 10.1487 14.256 10.4952 14.62 11.0655ZM19.8534 16.2293C22.9179 15.2078 23.924 13.5262 23.6213 12.1659C23.4743 11.5054 23.0159 10.9698 22.4074 10.7221C21.8717 10.504 21.2419 10.5175 20.6399 10.8307C20.1813 10.3305 19.5941 10.1024 19.0161 10.1241C18.3596 10.1488 17.7456 10.4953 17.3816 11.0656C16.6319 12.2404 17.0022 14.1648 19.5326 16.1727C19.6231 16.2445 19.7438 16.2658 19.8534 16.2293ZM20.5971 18.7374C20.9908 18.7023 21.3363 19.0121 21.2822 19.4036C20.9233 22.0004 18.6948 24 15.9993 24C13.3039 24 11.0754 22.0004 10.7165 19.4036C10.6624 19.0121 11.0079 18.7023 11.4016 18.7374C14.4805 19.0118 17.5182 19.0118 20.5971 18.7374Z" fill="#9C9696"/>
</svg>
