<svg width="40" height="40" viewBox="0 0 40 40" fill="none" xmlns="http://www.w3.org/2000/svg">
<path d="M25.0013 5C28.223 5 30.8346 7.61167 30.8346 10.8333C30.8346 14.055 28.223 16.6667 25.0013 16.6667M34.168 33.3333H38.3346C38.3346 28.4371 34.8877 24.2454 30.0013 22.5146M15.0013 16.6667C11.7796 16.6667 9.16797 14.055 9.16797 10.8333C9.16797 7.61167 11.7796 5 15.0013 5C18.223 5 20.8346 7.61167 20.8346 10.8333C20.8346 14.055 18.223 16.6667 15.0013 16.6667ZM1.66797 33.3333C1.66797 26.89 7.6375 21.6667 15.0013 21.6667C22.3651 21.6667 28.3346 26.89 28.3346 33.3333H1.66797Z" stroke="#0D0C0C" stroke-width="2" stroke-linejoin="round"/>
</svg>
