<svg width="208" height="32" viewBox="0 0 208 32" fill="none" xmlns="http://www.w3.org/2000/svg">
<path d="M17.5086 2.28094C16.9026 1.01768 15.1022 1.01768 14.4962 2.28094L11.1536 9.24915L3.45562 10.2586C2.07105 10.4401 1.49568 12.1527 2.52565 13.1253L8.15266 18.4389L6.74036 26.0259C6.48061 27.4213 7.95612 28.4576 9.17655 27.7987L16.0024 24.1134L22.8283 27.7987C24.0487 28.4576 25.5242 27.4213 25.2645 26.0259L23.8522 18.4389L29.4792 13.1253C30.5091 12.1527 29.9338 10.4401 28.5492 10.2586L20.8512 9.24915L17.5086 2.28094Z" fill="#FFB82D"/>
<path d="M61.5086 2.28094C60.9026 1.01768 59.1022 1.01768 58.4962 2.28094L55.1536 9.24915L47.4556 10.2586C46.0711 10.4401 45.4957 12.1527 46.5257 13.1253L52.1527 18.4389L50.7404 26.0259C50.4806 27.4213 51.9561 28.4576 53.1765 27.7987L60.0024 24.1134L66.8283 27.7987C68.0487 28.4576 69.5242 27.4213 69.2645 26.0259L67.8522 18.4389L73.4792 13.1253C74.5091 12.1527 73.9338 10.4401 72.5492 10.2586L64.8512 9.24915L61.5086 2.28094Z" fill="#FFB82D"/>
<path d="M105.509 2.28094C104.903 1.01768 103.102 1.01768 102.496 2.28094L99.1536 9.24915L91.4556 10.2586C90.0711 10.4401 89.4957 12.1527 90.5257 13.1253L96.1527 18.4389L94.7404 26.0259C94.4806 27.4213 95.9561 28.4576 97.1765 27.7987L104.002 24.1134L110.828 27.7987C112.049 28.4576 113.524 27.4213 113.264 26.0259L111.852 18.4389L117.479 13.1253C118.509 12.1527 117.934 10.4401 116.549 10.2586L108.851 9.24915L105.509 2.28094Z" fill="#FFB82D"/>
<path d="M149.509 2.28094C148.903 1.01768 147.102 1.01768 146.496 2.28094L143.154 9.24915L135.456 10.2586C134.071 10.4401 133.496 12.1527 134.526 13.1253L140.153 18.4389L138.74 26.0259C138.481 27.4213 139.956 28.4576 141.177 27.7987L148.002 24.1134L154.828 27.7987C156.049 28.4576 157.524 27.4213 157.264 26.0259L155.852 18.4389L161.479 13.1253C162.509 12.1527 161.934 10.4401 160.549 10.2586L152.851 9.24915L149.509 2.28094Z" fill="#FFB82D"/>
<path d="M193.509 2.28094C192.903 1.01768 191.102 1.01768 190.496 2.28094L187.154 9.24915L179.456 10.2586C178.071 10.4401 177.496 12.1527 178.526 13.1253L184.153 18.4389L182.74 26.0259C182.481 27.4213 183.956 28.4576 185.177 27.7987L192.002 24.1134L198.828 27.7987C200.049 28.4576 201.524 27.4213 201.264 26.0259L199.852 18.4389L205.479 13.1253C206.509 12.1527 205.934 10.4401 204.549 10.2586L196.851 9.24915L193.509 2.28094Z" fill="#FFB82D"/>
</svg>
