<svg width="24" height="24" viewBox="0 0 24 24" fill="none" xmlns="http://www.w3.org/2000/svg">
<path d="M7.53419 1.35927C6.39923 1.41283 5.62406 1.59462 4.94667 1.86005C4.24545 2.13342 3.65102 2.49977 3.05971 3.0935C2.46769 3.68761 2.10412 4.28308 1.83283 4.985C1.57017 5.66412 1.39218 6.43966 1.34206 7.57532C1.2923 8.71305 1.28089 9.07593 1.28644 11.9725C1.29196 14.8686 1.30474 15.2322 1.359 16.3703C1.41325 17.5049 1.59436 18.2797 1.85978 18.9575C2.1335 19.6587 2.49948 20.2528 3.09355 20.8445C3.68731 21.4362 4.28313 21.7994 4.98537 22.0711C5.66379 22.3334 6.43966 22.512 7.57497 22.5618C8.7127 22.6119 9.0759 22.623 11.9717 22.6175C14.8689 22.6119 15.2321 22.5991 16.3698 22.5452C17.5048 22.4909 18.2793 22.3092 18.9573 22.0444C19.6585 21.77 20.253 21.4047 20.8443 20.8106C21.4356 20.2169 21.7992 19.6211 22.0705 18.9188C22.3332 18.2404 22.5118 17.4645 22.5613 16.3299C22.611 15.1914 22.6228 14.8279 22.6172 11.9317C22.6117 9.03516 22.5986 8.67228 22.5447 7.53489C22.4908 6.39924 22.309 5.62473 22.0439 4.94665C21.7698 4.24542 21.4042 3.65166 20.8104 3.05964C20.2167 2.46832 19.6209 2.10405 18.9186 1.83344C18.2399 1.57078 17.4643 1.39175 16.329 1.34267C15.1913 1.29222 14.8281 1.28117 11.9313 1.28669C9.03513 1.29222 8.67193 1.30466 7.53419 1.35927ZM7.65862 20.642C6.6187 20.5967 6.05398 20.4239 5.67763 20.2791C5.17926 20.0862 4.82366 19.855 4.44937 19.4835C4.07577 19.1106 3.84387 18.756 3.64929 18.2587C3.5031 17.8823 3.32721 17.3183 3.27846 16.2784C3.22558 15.1541 3.2135 14.8168 3.2083 11.9687C3.20278 9.12121 3.21313 8.7839 3.26222 7.65862C3.30681 6.61937 3.48065 6.05396 3.6251 5.67796C3.81793 5.17889 4.04846 4.82396 4.42067 4.44966C4.79358 4.07537 5.14817 3.84417 5.64582 3.64958C6.02185 3.5027 6.58587 3.32817 7.62542 3.27876C8.75035 3.22553 9.08731 3.21412 11.9347 3.2086C14.7828 3.20305 15.1201 3.2131 16.2454 3.26252C17.2846 3.3078 17.85 3.4799 18.2257 3.6254C18.7244 3.81825 19.08 4.04806 19.454 4.42097C19.8279 4.7939 20.0598 5.1478 20.2544 5.64649C20.4012 6.02148 20.5758 6.5862 20.6249 7.62542C20.6784 8.75038 20.6905 9.08769 20.6957 11.9351C20.7012 14.7833 20.6909 15.1206 20.6414 16.2452C20.5962 17.2851 20.4237 17.8502 20.2786 18.2269C20.0857 18.7249 19.8552 19.0805 19.4826 19.4548C19.1101 19.8277 18.7555 20.0603 18.2575 20.2549C17.8822 20.4014 17.3174 20.5763 16.2786 20.6257C15.1537 20.6786 14.8167 20.6907 11.9682 20.6959C9.12083 20.7014 8.78387 20.6907 7.65862 20.642ZM16.3543 6.25028C16.3556 6.9567 16.93 7.52868 17.6364 7.52729C18.3432 7.5259 18.9152 6.95185 18.9141 6.24542C18.9127 5.53902 18.3384 4.9667 17.6316 4.96809C16.9249 4.96945 16.3529 5.54385 16.3543 6.25028ZM6.47494 11.9624C6.48081 14.9875 8.93769 17.4344 11.962 17.4285C14.9867 17.4227 17.4349 14.9664 17.4291 11.9413C17.4232 8.91732 14.966 6.46905 11.9409 6.47492C8.91659 6.48078 6.46905 8.93804 6.47494 11.9624ZM8.39611 11.9586C8.39265 9.99524 9.98174 8.40028 11.9448 8.39684C13.9081 8.39302 15.5034 9.98143 15.5072 11.9452C15.511 13.9089 13.9219 15.5035 11.9582 15.5073C9.99521 15.5111 8.39993 13.9224 8.39611 11.9586Z" fill="#090909"/>
</svg>
