<svg width="32" height="32" viewBox="0 0 32 32" fill="none" xmlns="http://www.w3.org/2000/svg">
    <path d="M15.9993 2.66666C12.6856 2.66666 9.99935 5.35295 9.99935 8.66666C9.99935 11.9804 12.6856 14.6667 15.9993 14.6667C19.3131 14.6667 21.9993 11.9804 21.9993 8.66666C21.9993 5.35295 19.3131 2.66666 15.9993 2.66666Z" fill="#9C9696"/>
    <path d="M4.67187 26.5419C5.22155 20.6948 9.65565 16 15.9994 16C17.8507 16 19.5394 16.3998 21.0164 17.1115C17.7038 17.7451 15.9993 20.9587 15.9993 23.6667C15.9993 25.3222 16.628 26.8043 17.4641 28H5.99935C5.62403 28 5.26608 27.8418 5.01341 27.5643C4.76074 27.2867 4.63674 26.9155 4.67187 26.5419Z" fill="#9C9696"/>
    <path fill-rule="evenodd" clip-rule="evenodd" d="M22.2216 19.6667C21.3083 19.6667 20.3971 20.0336 19.7211 20.7547C19.0387 21.4826 18.666 22.4923 18.666 23.6667C18.666 25.5708 19.9964 27.0253 21.0252 27.8752C21.5755 28.3298 22.1343 28.6905 22.5862 28.9416C22.8119 29.0669 23.0238 29.1722 23.2065 29.2505C23.2966 29.2891 23.3946 29.3276 23.493 29.3591L23.4969 29.3604C23.5561 29.3794 23.7588 29.4444 23.9993 29.4444C24.2399 29.4444 24.4426 29.3794 24.5018 29.3604L24.5057 29.3591C24.6041 29.3276 24.7021 29.2891 24.7922 29.2505C24.9749 29.1722 25.1868 29.0669 25.4125 28.9416C25.8643 28.6905 26.4232 28.3298 26.9735 27.8752C28.0023 27.0253 29.3327 25.5708 29.3327 23.6667C29.3327 22.4923 28.96 21.4826 28.2776 20.7547C27.6016 20.0336 26.6904 19.6667 25.7771 19.6667C25.0451 19.6667 24.4421 19.8613 23.9993 20.077C23.5566 19.8613 22.9536 19.6667 22.2216 19.6667ZM21.3327 23.6667C21.3327 23.0632 21.5156 22.7396 21.6665 22.5786C21.8238 22.4108 22.0238 22.3333 22.2216 22.3333C22.5045 22.3333 22.7303 22.4175 22.8887 22.5039C22.9676 22.5469 23.0247 22.5879 23.0561 22.6125C23.0617 22.6169 23.0663 22.6206 23.07 22.6236C23.0732 22.6263 23.0773 22.6298 23.0773 22.6298C23.5925 23.1234 24.4062 23.1234 24.9214 22.6298C24.9234 22.628 24.9265 22.6254 24.9307 22.622C24.934 22.6193 24.938 22.6161 24.9426 22.6125C24.974 22.5879 25.0311 22.5469 25.11 22.5039C25.2684 22.4175 25.4942 22.3333 25.7771 22.3333C25.9749 22.3333 26.1749 22.4108 26.3322 22.5786C26.4831 22.7396 26.666 23.0632 26.666 23.6667C26.666 24.3181 26.163 25.0858 25.2752 25.8193C24.8672 26.1563 24.4468 26.4275 24.1174 26.6105C24.0757 26.6337 24.0363 26.655 23.9993 26.6744C23.9624 26.655 23.923 26.6337 23.8812 26.6105C23.5518 26.4275 23.1315 26.1563 22.7235 25.8193C21.8356 25.0858 21.3327 24.3181 21.3327 23.6667Z" fill="#9C9696"/>
</svg>
