<svg width="32" height="32" viewBox="0 0 32 32" fill="none" xmlns="http://www.w3.org/2000/svg">
<path fill-rule="evenodd" clip-rule="evenodd" d="M24.712 7.28731C22.1067 4.68201 17.8827 4.68201 15.2774 7.28731L15.2712 7.29351L14.2693 8.28233C13.7452 8.79959 12.901 8.79404 12.3837 8.26993C11.8664 7.74582 11.872 6.90161 12.3961 6.38435L13.395 5.39847C17.042 1.755 22.952 1.75607 26.5977 5.4017C30.2433 9.04735 30.2444 14.9575 26.6008 18.6044C26.5997 18.6055 26.5987 18.6065 26.5977 18.6076L25.615 19.6033C25.0977 20.1274 24.2535 20.1329 23.7294 19.6157C23.2053 19.0984 23.1998 18.2542 23.717 17.7301L24.712 16.7219C27.3173 14.1166 27.3173 9.89261 24.712 7.28731ZM8.26927 12.3843C8.79338 12.9016 8.79893 13.7458 8.28167 14.2699L7.28668 15.2781C4.68138 17.8834 4.68136 22.1074 7.28666 24.7127C9.89196 27.318 14.116 27.318 16.7213 24.7127L16.7275 24.7065L17.7294 23.7177C18.2535 23.2004 19.0977 23.206 19.615 23.7301C20.1323 24.2542 20.1267 25.0984 19.6026 25.6157L18.6069 26.5983C18.6058 26.5994 18.6047 26.6005 18.6037 26.6015C14.9567 30.245 9.04666 30.2439 5.40104 26.5983C1.75541 22.9527 1.75434 17.0426 5.39783 13.3957L6.38369 12.3968C6.90096 11.8726 7.74516 11.8671 8.26927 12.3843ZM19.6088 12.3905C20.1295 12.9112 20.1295 13.7554 19.6088 14.2761L14.2755 19.6095C13.7548 20.1302 12.9106 20.1302 12.3899 19.6095C11.8692 19.0888 11.8692 18.2446 12.3899 17.7239L17.7232 12.3905C18.2439 11.8698 19.0881 11.8698 19.6088 12.3905Z" fill="#9C9696"/>
</svg>
