<svg width="24" height="24" viewBox="0 0 24 24" fill="none" xmlns="http://www.w3.org/2000/svg">
<path fill-rule="evenodd" clip-rule="evenodd" d="M2.40039 11.7115C2.40039 6.36087 6.5925 2.39941 12.0004 2.39941C17.4084 2.39941 21.6005 6.36087 21.6005 11.7115C21.6005 17.0621 17.4084 21.0235 12.0004 21.0235C11.0289 21.0235 10.097 20.8951 9.22148 20.6544C9.05132 20.6076 8.87036 20.6208 8.70882 20.6921L6.80346 21.5333C6.30498 21.7531 5.74242 21.3989 5.72562 20.8541L5.6733 19.1465C5.66682 18.936 5.57202 18.7394 5.4153 18.599C3.54735 16.9286 2.40039 14.5101 2.40039 11.7115ZM9.05455 9.96069L6.23455 14.4348C5.96383 14.8642 6.49135 15.348 6.89575 15.0413L9.92479 12.7423C10.1298 12.5868 10.413 12.5861 10.6187 12.7404L12.8617 14.4226C13.5347 14.9273 14.4954 14.7499 14.944 14.0383L17.764 9.56421C18.0347 9.13485 17.5069 8.65101 17.1025 8.95773L14.0735 11.2567C13.8685 11.4122 13.5853 11.413 13.3796 11.2586L11.1368 9.57645C10.4636 9.07173 9.50311 9.24885 9.05455 9.96069Z" fill="#090909"/>
</svg>
