<svg width="40" height="40" viewBox="0 0 40 40" fill="none" xmlns="http://www.w3.org/2000/svg">
<path d="M16.6621 30.8333C16.6621 33.1345 14.4235 35 11.6621 35C8.90069 35 6.66211 33.1345 6.66211 30.8333C6.66211 28.5321 8.90069 26.6667 11.6621 26.6667C14.4235 26.6667 16.6621 28.5321 16.6621 30.8333ZM16.6621 30.8333V10L33.3288 5V25.8333M33.3288 25.8333C33.3288 28.1345 31.0902 30 28.3288 30C25.5674 30 23.3288 28.1345 23.3288 25.8333C23.3288 23.5321 25.5674 21.6667 28.3288 21.6667C31.0902 21.6667 33.3288 23.5321 33.3288 25.8333Z" stroke="#0D0C0C" stroke-width="2" stroke-linejoin="round"/>
</svg>
