<svg width="32" height="32" viewBox="0 0 32 32" fill="none" xmlns="http://www.w3.org/2000/svg">
<path d="M13.3333 20C13.3333 18.5272 14.5272 17.3333 16 17.3333C17.4728 17.3333 18.6667 18.5272 18.6667 20C18.6667 21.4728 17.4728 22.6667 16 22.6667C14.5272 22.6667 13.3333 21.4728 13.3333 20Z" fill="#9C9696"/>
<path fill-rule="evenodd" clip-rule="evenodd" d="M6.66667 4H10.6667V10.6667C10.6667 11.403 11.2636 12 12 12H20C20.7364 12 21.3333 11.403 21.3333 10.6667V4H22.1144C22.8216 4 23.4999 4.28095 24 4.78105L27.219 8C27.719 8.5001 28 9.17837 28 9.88562V25.3333C28 26.8061 26.8061 28 25.3333 28H6.66667C5.19391 28 4 26.8061 4 25.3333V6.66667C4 5.19391 5.19391 4 6.66667 4ZM16 14.6667C13.0545 14.6667 10.6667 17.0545 10.6667 20C10.6667 22.9455 13.0545 25.3333 16 25.3333C18.9455 25.3333 21.3333 22.9455 21.3333 20C21.3333 17.0545 18.9455 14.6667 16 14.6667Z" fill="#9C9696"/>
<path d="M13.3333 4H18.6667V9.33333H13.3333V4Z" fill="#9C9696"/>
</svg>
