<svg width="32" height="32" viewBox="0 0 32 32" fill="none" xmlns="http://www.w3.org/2000/svg">
<path d="M9.39045 22.6667C11.0986 24.3145 13.4526 25.3333 16 25.3333C21.1547 25.3333 25.3333 21.1547 25.3333 16C25.3333 15.2636 25.9303 14.6667 26.6667 14.6667C27.403 14.6667 28 15.2636 28 16C28 22.6274 22.6274 28 16 28C12.9648 28 10.1439 26.8717 8 25.0079V26.6667C8 27.403 7.40305 28 6.66667 28C5.93029 28 5.33333 27.403 5.33333 26.6667V22C5.33333 20.8954 6.22876 20 7.33333 20H11.6667C12.403 20 13 20.597 13 21.3333C13 22.0697 12.403 22.6667 11.6667 22.6667H9.39045Z" fill="#9C9696"/>
<path d="M6.66667 16C6.66667 16.7364 6.06971 17.3333 5.33333 17.3333C4.59695 17.3333 4 16.7364 4 16C4 9.37258 9.37258 4 16 4C19.0427 4 21.87 5.13386 24.0158 7.00586V5.33333C24.0158 4.59695 24.6127 4 25.3491 4C26.0855 4 26.6825 4.59695 26.6825 5.33333V10C26.6825 11.1046 25.787 12 24.6825 12H20.0158C19.2794 12 18.6825 11.403 18.6825 10.6667C18.6825 9.93029 19.2794 9.33333 20.0158 9.33333H22.6095C20.9014 7.68552 18.5474 6.66667 16 6.66667C10.8453 6.66667 6.66667 10.8453 6.66667 16Z" fill="#9C9696"/>
</svg>
