<svg width="40" height="40" viewBox="0 0 40 40" fill="none" xmlns="http://www.w3.org/2000/svg">
<path d="M11.6667 21.6667H5.83333L10 13.3333H18.75M11.6667 21.6667L18.3333 28.3333M11.6667 21.6667L18.75 13.3333M18.3333 28.3333V34.1667L26.6667 30V21.25M18.3333 28.3333L26.6667 21.25M26.6667 21.25C31.6667 16.6667 35 11.6667 35 5C28.3333 5 23.3333 8.33333 18.75 13.3333M8.33333 35H5V31.6667C5 29.8257 6.49238 28.3333 8.33333 28.3333C10.1743 28.3333 11.6667 29.8257 11.6667 31.6667C11.6667 33.5076 10.1743 35 8.33333 35Z" stroke="#0D0C0C" stroke-width="2" stroke-linejoin="round"/>
</svg>
