<svg width="32" height="32" viewBox="0 0 32 32" fill="none" xmlns="http://www.w3.org/2000/svg">
<path d="M17.2765 3.61686C17.1073 3.05288 16.5882 2.66666 15.9993 2.66666C15.4105 2.66666 14.8914 3.05288 14.7222 3.61686C13.7631 6.81393 12.5198 9.09389 10.8065 10.8072C9.09325 12.5205 6.81329 13.7638 3.61622 14.7229C3.05224 14.8921 2.66602 15.4112 2.66602 16C2.66602 16.5888 3.05224 17.1079 3.61622 17.2771C6.81329 18.2362 9.09325 19.4795 10.8065 21.1928C12.5198 22.9061 13.7631 25.186 14.7222 28.3831C14.8914 28.9471 15.4105 29.3333 15.9993 29.3333C16.5882 29.3333 17.1073 28.9471 17.2765 28.3831C18.2356 25.186 19.4789 22.9061 21.1922 21.1928C22.9055 19.4795 25.1854 18.2362 28.3825 17.2771C28.9465 17.1079 29.3327 16.5888 29.3327 16C29.3327 15.4112 28.9465 14.8921 28.3825 14.7229C25.1854 13.7638 22.9055 12.5205 21.1922 10.8072C19.4789 9.09389 18.2356 6.81393 17.2765 3.61686Z" fill="#9C9696"/>
</svg>
