<svg width="24" height="24" viewBox="0 0 24 24" fill="none" xmlns="http://www.w3.org/2000/svg">
<path fill-rule="evenodd" clip-rule="evenodd" d="M22.2981 13.7988C22.2558 14.5549 21.9229 15.2654 21.3691 15.7818C20.8152 16.2983 20.0832 16.5807 19.326 16.57H12.1818C12.0246 16.5685 11.8743 16.5051 11.7633 16.3937C11.6524 16.2822 11.5897 16.1316 11.5888 15.9744V8.28198C11.5838 8.14998 11.6188 8.01953 11.6892 7.90774C11.7596 7.79598 11.8622 7.70809 11.9834 7.65563C11.9834 7.65563 12.6405 7.19995 14.0246 7.19995C14.8702 7.19899 15.7004 7.4271 16.4268 7.86001C16.9936 8.1935 17.485 8.64099 17.87 9.17419C18.255 9.70739 18.5251 10.3147 18.6633 10.9576C18.9099 10.8882 19.1649 10.8534 19.4211 10.8544C19.8054 10.8518 20.1862 10.9268 20.5408 11.0747C20.8955 11.2226 21.2167 11.4405 21.4853 11.7154C21.7538 11.9902 21.9643 12.3163 22.104 12.6743C22.2437 13.0322 22.3095 13.4147 22.2981 13.7988ZM10.697 8.76838C10.9125 11.3775 11.0691 13.757 10.697 16.3575C10.6906 16.4142 10.6635 16.4665 10.621 16.5044C10.5785 16.5424 10.5234 16.5634 10.4664 16.5634C10.4094 16.5634 10.3544 16.5424 10.3119 16.5044C10.2693 16.4665 10.2423 16.4142 10.2358 16.3575C9.88894 13.7792 10.0396 11.3549 10.2358 8.76838C10.2307 8.72491 10.2381 8.68091 10.257 8.64145C10.2759 8.60198 10.3056 8.5687 10.3427 8.54545C10.3798 8.52222 10.4227 8.50998 10.4665 8.51017C10.5102 8.51035 10.5531 8.52297 10.59 8.54651C10.665 8.59345 10.7073 8.68006 10.697 8.76838ZM9.25107 16.3601C9.24294 16.4181 9.21414 16.4712 9.16995 16.5096C9.12579 16.548 9.06921 16.5692 9.01065 16.5692C8.95209 16.5692 8.8955 16.548 8.85134 16.5096C8.80715 16.4712 8.77835 16.4181 8.77022 16.3601C8.51166 14.1354 8.51166 11.8882 8.77022 9.66353C8.77638 9.60366 8.80454 9.54822 8.84923 9.5079C8.8939 9.46758 8.95195 9.44526 9.01214 9.44526C9.07233 9.44526 9.13038 9.46758 9.17507 9.5079C9.21974 9.54822 9.2479 9.60366 9.25406 9.66353C9.54121 11.8865 9.53993 14.1372 9.25107 16.3601ZM7.80297 9.43697C8.03763 11.8276 8.1443 13.9695 7.80041 16.3545C7.79683 16.4137 7.77081 16.4692 7.72766 16.5098C7.68454 16.5504 7.62753 16.573 7.5683 16.573C7.50907 16.573 7.45206 16.5504 7.40894 16.5098C7.36579 16.4692 7.33979 16.4137 7.33619 16.3545C7.00339 14.0002 7.11518 11.7969 7.33619 9.43697C7.34899 9.3175 7.44969 9.2279 7.56958 9.2279C7.68905 9.2279 7.79017 9.3175 7.80297 9.43697ZM6.3523 16.3631C6.34459 16.4203 6.31638 16.4728 6.27291 16.5108C6.22945 16.5488 6.17366 16.5698 6.11593 16.5698C6.05819 16.5698 6.00241 16.5488 5.95894 16.5108C5.91547 16.4728 5.88726 16.4203 5.87955 16.3631C5.61246 14.2875 5.61246 12.1863 5.87955 10.1107C5.87955 10.0469 5.90489 9.98577 5.94998 9.94067C5.99507 9.89558 6.05622 9.87025 6.11998 9.87025C6.18374 9.87025 6.24489 9.89558 6.28998 9.94067C6.33507 9.98577 6.36041 10.0469 6.36041 10.1107C6.64409 12.1854 6.64163 14.2892 6.3523 16.3631ZM4.90334 11.674C5.26985 13.2953 5.10473 14.7272 4.88969 16.3797C4.88099 16.4329 4.85369 16.4812 4.81265 16.516C4.77161 16.5509 4.71953 16.57 4.66569 16.57C4.61185 16.57 4.55977 16.5509 4.51873 16.516C4.47769 16.4812 4.45038 16.4329 4.44169 16.3797C4.24627 14.7498 4.08414 13.2842 4.42803 11.6736C4.43171 11.613 4.45838 11.5561 4.50259 11.5146C4.54681 11.473 4.60521 11.4499 4.6659 11.45C4.72657 11.45 4.78494 11.4732 4.82907 11.5149C4.87321 11.5565 4.89977 11.6134 4.90334 11.674ZM3.45779 11.4278C3.79358 13.0888 3.68393 14.4951 3.44926 16.1617C3.42153 16.4079 2.99955 16.4104 2.97694 16.1617C2.76446 14.5203 2.66377 13.0718 2.96841 11.4278C2.9759 11.3682 3.00489 11.3134 3.04993 11.2736C3.09499 11.2338 3.15302 11.2119 3.2131 11.2119C3.27318 11.2119 3.33121 11.2338 3.37627 11.2736C3.42131 11.3134 3.4503 11.3682 3.45779 11.4278ZM1.99859 12.2329C2.35059 13.3346 2.23027 14.2297 1.98451 15.3591C1.97957 15.4163 1.95338 15.4695 1.91112 15.5082C1.86885 15.547 1.81359 15.5685 1.75625 15.5685C1.6989 15.5685 1.64364 15.547 1.60138 15.5082C1.55911 15.4695 1.53293 15.4163 1.52798 15.3591C1.31593 14.2519 1.22931 13.3376 1.50921 12.2329C1.51433 12.1716 1.54231 12.1145 1.58759 12.0728C1.63288 12.0312 1.69216 12.008 1.75369 12.008C1.81521 12.008 1.8745 12.0312 1.91978 12.0728C1.96506 12.1145 1.99304 12.1716 1.99817 12.2329H1.99859Z" fill="#090909"/>
</svg>
