<svg width="24" height="24" viewBox="0 0 24 24" fill="none" xmlns="http://www.w3.org/2000/svg">
<path d="M18.3087 10.7895C14.8703 8.74755 9.1987 8.55981 5.91638 9.55613C5.38931 9.71597 4.8319 9.41843 4.67219 8.89136C4.51246 8.36403 4.80974 7.80704 5.3372 7.6468C9.10507 6.50299 15.3687 6.72397 19.327 9.07363C19.8011 9.35501 19.9566 9.96728 19.6757 10.4406C19.3944 10.9147 18.7816 11.071 18.3087 10.7895ZM18.1961 13.8138C17.9548 14.2053 17.443 14.3281 17.0521 14.0877C14.1855 12.3257 9.81443 11.8154 6.42307 12.8447C5.98326 12.9777 5.51872 12.7297 5.38523 12.2907C5.25262 11.8509 5.50075 11.3873 5.93968 11.2535C9.81392 10.078 14.6301 10.6473 17.9225 12.6705C18.3134 12.9113 18.4364 13.4234 18.1961 13.8138ZM16.8909 16.7183C16.6992 17.0327 16.2899 17.1312 15.9767 16.9396C13.4717 15.4087 10.319 15.063 6.60598 15.9111C6.24819 15.9931 5.89166 15.7689 5.81003 15.4111C5.72811 15.0534 5.95142 14.6968 6.31008 14.6151C10.3732 13.6863 13.8587 14.0861 16.6702 15.8041C16.9837 15.9955 17.0824 16.405 16.8909 16.7183ZM11.9989 1.33325C6.10782 1.33325 1.33203 6.10888 1.33203 11.9998C1.33203 17.8913 6.10782 22.6666 11.9989 22.6666C17.8901 22.6666 22.6657 17.8913 22.6657 11.9998C22.6657 6.10888 17.8901 1.33325 11.9989 1.33325Z" fill="#090909"/>
</svg>
