<svg width="24" height="24" viewBox="0 0 24 24" fill="none" xmlns="http://www.w3.org/2000/svg">
<path fill-rule="evenodd" clip-rule="evenodd" d="M20.3335 4.98217C21.2514 5.22907 21.9742 5.95673 22.2196 6.88049C22.6654 8.55502 22.6654 12.0486 22.6654 12.0486C22.6654 12.0486 22.6654 15.5423 22.2196 17.2168C21.9742 18.1406 21.2514 18.8681 20.3335 19.1151C18.6698 19.5637 11.9987 19.5637 11.9987 19.5637C11.9987 19.5637 5.32755 19.5637 3.66379 19.1151C2.74598 18.8681 2.02306 18.1406 1.77773 17.2168C1.33203 15.5423 1.33203 12.0486 1.33203 12.0486C1.33203 12.0486 1.33203 8.55502 1.77773 6.88049C2.02306 5.95673 2.74598 5.22907 3.66379 4.98217C5.32755 4.53345 11.9987 4.53345 11.9987 4.53345C11.9987 4.53345 18.6698 4.53345 20.3335 4.98217ZM15.3922 12.0485L9.81641 15.2203V8.87646L15.3922 12.0485Z" fill="#090909"/>
</svg>
